<svg width="26" height="21" viewBox="0 0 26 21" fill="none" xmlns="http://www.w3.org/2000/svg">
<path d="M25.3102 10.075C25.1402 9.70667 21.2586 0.937506 12.9994 0.937506C12.2086 0.936674 11.42 1.02218 10.6477 1.19251C10.3934 1.27125 10.1778 1.44263 10.0438 1.67273C9.90978 1.90283 9.86704 2.17486 9.92405 2.43497C9.98106 2.69507 10.1337 2.92429 10.3516 3.07724C10.5696 3.23019 10.8371 3.29571 11.1011 3.26084C11.7254 3.13034 12.3615 3.06389 12.9994 3.06251C18.9211 3.06251 22.3211 8.87084 23.1569 10.5C22.6473 11.4956 22.0499 12.4438 21.3719 13.3333C21.2501 13.4902 21.1747 13.678 21.1542 13.8754C21.1338 14.0729 21.169 14.2722 21.2561 14.4507C21.3431 14.6291 21.4784 14.7797 21.6466 14.8851C21.8148 14.9906 22.0092 15.0469 22.2077 15.0475C22.3691 15.047 22.5282 15.0097 22.6731 14.9385C22.8179 14.8674 22.9446 14.7641 23.0436 14.6367C23.9358 13.5036 24.6963 12.2726 25.3102 10.9675C25.3723 10.8269 25.4043 10.6749 25.4043 10.5213C25.4043 10.3676 25.3723 10.2156 25.3102 10.075Z" fill="#6C757D"/>
<path d="M5.25058 1.24927C5.04916 1.06159 4.78276 0.95942 4.5075 0.964277C4.23224 0.969134 3.96961 1.08064 3.77495 1.27531C3.58028 1.46998 3.46877 1.73261 3.46391 2.00787C3.45906 2.28313 3.56123 2.54953 3.74891 2.75094L5.05224 4.05427C3.20673 5.75202 1.72268 7.80463 0.68891 10.0893C0.633194 10.2216 0.604492 10.3637 0.604492 10.5072C0.604492 10.6507 0.633194 10.7928 0.68891 10.9251C0.85891 11.2934 4.74058 20.0626 12.9997 20.0626C15.2088 20.0735 17.372 19.4329 19.2189 18.2209L20.7489 19.7509C20.9481 19.9499 21.2182 20.0617 21.4997 20.0617C21.7813 20.0617 22.0514 19.9499 22.2506 19.7509C22.4496 19.5517 22.5613 19.2817 22.5613 19.0001C22.5613 18.7185 22.4496 18.4485 22.2506 18.2493L5.25058 1.24927ZM10.6764 9.74927L13.8072 12.8943C13.3685 13.0397 12.8985 13.0639 12.4471 12.9641C11.9957 12.8643 11.5797 12.6444 11.2431 12.3276C10.9002 11.9896 10.6639 11.5586 10.5632 11.0878C10.4625 10.6171 10.5018 10.1271 10.6764 9.67844V9.74927ZM12.9997 17.9376C7.06391 17.9376 3.67808 12.1151 2.84224 10.5001C3.76688 8.63904 5.0249 6.96328 6.55391 5.55594L9.08974 8.09177C8.5455 8.9714 8.31433 10.0091 8.4337 11.0365C8.55307 12.064 9.016 13.021 9.74741 13.7524C10.4788 14.4839 11.4359 14.9468 12.4633 15.0662C13.4908 15.1855 14.5285 14.9543 15.4081 14.4101L17.6889 16.6909C16.2654 17.5182 14.6461 17.9487 12.9997 17.9376Z" fill="#6C757D"/>
</svg>
