<svg width="48" height="48" viewBox="0 0 48 48" fill="none" xmlns="http://www.w3.org/2000/svg">
<path d="M45.36 0.904785H2.64C1.93983 0.904785 1.26833 1.17544 0.773238 1.65721C0.278142 2.13899 0 2.79241 0 3.47374V45.0441C0 45.7254 0.278142 46.3788 0.773238 46.8606C1.26833 47.3424 1.93983 47.613 2.64 47.613H25.632V29.5136H19.392V22.5073H25.632V17.2527C25.5027 16.019 25.6524 14.7728 26.0705 13.6013C26.4886 12.4299 27.165 11.3617 28.0523 10.4716C28.9396 9.58149 30.0163 8.89105 31.2068 8.44872C32.3973 8.00639 33.6729 7.82286 34.944 7.91102C36.812 7.89983 38.6791 7.9934 40.536 8.19127V14.4969H36.72C33.696 14.4969 33.12 15.8981 33.12 17.9299V22.4373H40.32L39.384 29.4435H33.12V47.613H45.36C45.7067 47.613 46.05 47.5466 46.3703 47.4175C46.6906 47.2884 46.9816 47.0991 47.2268 46.8606C47.4719 46.622 47.6664 46.3388 47.799 46.0272C47.9317 45.7155 48 45.3814 48 45.0441V3.47374C48 3.13638 47.9317 2.80232 47.799 2.49064C47.6664 2.17896 47.4719 1.89576 47.2268 1.65721C46.9816 1.41866 46.6906 1.22944 46.3703 1.10034C46.05 0.971233 45.7067 0.904785 45.36 0.904785Z" fill="#222222"/>
</svg>
