<svg width="56" height="56" viewBox="0 0 56 56" fill="none" xmlns="http://www.w3.org/2000/svg">
<path d="M28.0022 21.0001C26.1457 21.0001 24.3652 21.7376 23.0524 23.0503C21.7397 24.3631 21.0022 26.1436 21.0022 28.0001C21.0022 29.8566 21.7397 31.6371 23.0524 32.9498C24.3652 34.2626 26.1457 35.0001 28.0022 35.0001C29.8587 35.0001 31.6392 34.2626 32.9519 32.9498C34.2647 31.6371 35.0022 29.8566 35.0022 28.0001C35.0022 26.1436 34.2647 24.3631 32.9519 23.0503C31.6392 21.7376 29.8587 21.0001 28.0022 21.0001ZM28.0022 16.3334C31.0964 16.3334 34.0638 17.5626 36.2518 19.7505C38.4397 21.9384 39.6688 24.9059 39.6688 28.0001C39.6688 31.0943 38.4397 34.0617 36.2518 36.2497C34.0638 38.4376 31.0964 39.6668 28.0022 39.6668C24.908 39.6668 21.9405 38.4376 19.7526 36.2497C17.5647 34.0617 16.3355 31.0943 16.3355 28.0001C16.3355 24.9059 17.5647 21.9384 19.7526 19.7505C21.9405 17.5626 24.908 16.3334 28.0022 16.3334ZM43.1688 15.7501C43.1688 16.5236 42.8615 17.2655 42.3146 17.8125C41.7676 18.3595 41.0257 18.6667 40.2522 18.6667C39.4786 18.6667 38.7368 18.3595 38.1898 17.8125C37.6428 17.2655 37.3355 16.5236 37.3355 15.7501C37.3355 14.9765 37.6428 14.2347 38.1898 13.6877C38.7368 13.1407 39.4786 12.8334 40.2522 12.8334C41.0257 12.8334 41.7676 13.1407 42.3146 13.6877C42.8615 14.2347 43.1688 14.9765 43.1688 15.7501ZM28.0022 9.33342C22.2295 9.33342 21.2868 9.34975 18.6012 9.46875C16.7718 9.55508 15.5445 9.80008 14.4058 10.2434C13.4529 10.5933 12.5915 11.154 11.8858 11.8837C11.1555 12.5893 10.594 13.4508 10.2432 14.4037C9.79984 15.5471 9.55484 16.7721 9.47084 18.5991C9.3495 21.1751 9.33317 22.0757 9.33317 28.0001C9.33317 33.7751 9.3495 34.7154 9.4685 37.4011C9.55484 39.2281 9.79984 40.4578 10.2408 41.5941C10.6375 42.6091 11.1042 43.3394 11.8788 44.1141C12.6652 44.8981 13.3955 45.3671 14.3988 45.7544C15.5515 46.2001 16.7788 46.4474 18.5988 46.5314C21.1748 46.6527 22.0755 46.6668 27.9998 46.6668C33.7748 46.6668 34.7152 46.6504 37.4008 46.5314C39.2255 46.4451 40.4528 46.2001 41.5938 45.7591C42.5459 45.4075 43.407 44.847 44.1138 44.1188C44.9002 43.3348 45.3692 42.6044 45.7565 41.5987C46.1998 40.4507 46.4472 39.2234 46.5312 37.3988C46.6525 34.8251 46.6665 33.9221 46.6665 28.0001C46.6665 22.2274 46.6502 21.2847 46.5312 18.5991C46.4448 16.7744 46.1975 15.5424 45.7565 14.4037C45.4048 13.4518 44.8443 12.5907 44.1162 11.8837C43.4109 11.1531 42.5494 10.5915 41.5962 10.2411C40.4528 9.79775 39.2255 9.55275 37.4008 9.46875C34.8272 9.34742 33.9265 9.33342 27.9998 9.33342M27.9998 4.66675C34.3395 4.66675 35.1305 4.69008 37.6202 4.80675C40.1028 4.92341 41.7968 5.31308 43.2832 5.89175C44.8232 6.48442 46.1205 7.28708 47.4178 8.58208C48.6043 9.74851 49.5224 11.1595 50.1082 12.7167C50.6845 14.2031 51.0765 15.8971 51.1932 18.3821C51.3028 20.8694 51.3332 21.6604 51.3332 28.0001C51.3332 34.3398 51.3098 35.1307 51.1932 37.6181C51.0765 40.1031 50.6845 41.7948 50.1082 43.2834C49.524 44.8415 48.6057 46.2528 47.4178 47.4181C46.2511 48.6042 44.8402 49.5222 43.2832 50.1084C41.7968 50.6848 40.1028 51.0768 37.6202 51.1934C35.1305 51.3031 34.3395 51.3334 27.9998 51.3334C21.6602 51.3334 20.8692 51.3101 18.3795 51.1934C15.8968 51.0768 14.2052 50.6848 12.7165 50.1084C11.1586 49.5239 9.7474 48.6056 8.58184 47.4181C7.39518 46.2518 6.47708 44.8408 5.8915 43.2834C5.31284 41.7971 4.92317 40.1031 4.8065 37.6181C4.6945 35.1307 4.6665 34.3398 4.6665 28.0001C4.6665 21.6604 4.68984 20.8694 4.8065 18.3821C4.92317 15.8971 5.31284 14.2054 5.8915 12.7167C6.47539 11.1585 7.39371 9.74716 8.58184 8.58208C9.74774 7.39495 11.1588 6.47678 12.7165 5.89175C14.2028 5.31308 15.8945 4.92341 18.3795 4.80675C20.8715 4.69708 21.6625 4.66675 28.0022 4.66675" fill="#222222"/>
</svg>
